{"title":"PIKU [2015] DVDScr x264 (Exclusive) - Makintos13","uid":11896257,"size":685171013,"categoryP":"video","categoryS":"movies","magnet":"?xt=urn:btih:890c87bb9cbb413282f078a4ec4b2c6f308ee9fe&amp;dn=PIKU+%5B2015%5D+DVDScr+x264+%28Exclusive%29+-+Makintos13&amp;tr=udp%3A%2F%2Ftracker.openbittorrent.com%3A80&amp;tr=udp%3A%2F%2Fopen.demonii.com%3A1337&amp;tr=udp%3A%2F%2Ftracker.coppersurfer.tk%3A6969&amp;tr=udp%3A%2F%2Fexodus.desync.com%3A6969","seeders":13,"leechers":1,"uploader":"makintos13","files":1,"time":1431160161,"description":"screen:\n &lt;a href=&quot;\nhttp://imgmak.com/mV&quot; rel=&quot;nofollow&quot; target=&quot;_NEW&quot;&gt;\nhttp://imgmak.com/mV&lt;/a&gt;\n &lt;a href=&quot;\nhttp://imgmak.com/me&quot; rel=&quot;nofollow&quot; target=&quot;_NEW&quot;&gt;\nhttp://imgmak.com/me&lt;/a&gt;\n &lt;a href=&quot;\nhttp://imgmak.com/mg&quot; rel=&quot;nofollow&quot; target=&quot;_NEW&quot;&gt;\nhttp://imgmak.com/mg&lt;/a&gt;\n &lt;a href=&quot;\nhttp://imgmak.com/mo&quot; rel=&quot;nofollow&quot; target=&quot;_NEW&quot;&gt;\nhttp://imgmak.com/mo&lt;/a&gt;\n &lt;a href=&quot;\nhttp://imgmak.com/mN&quot; rel=&quot;nofollow&quot; target=&quot;_NEW&quot;&gt;\nhttp://imgmak.com/mN&lt;/a&gt;\n &lt;a href=&quot;\nhttp://imgmak.com/mQ&quot; rel=&quot;nofollow&quot; target=&quot;_NEW&quot;&gt;\nhttp://imgmak.com/mQ&lt;/a&gt;\n\n\n\nINFO:\n\nFormat : MPEG-4\nFormat profile : Base Media / Version 2\nCodec ID : mp42\nFile size : 653 MiB\nDuration : 1h 57mn\nOverall bit rate mode : Variable\nOverall bit rate : 776 Kbps\n\nVideo\nID : 1\nFormat : AVC\nFormat/Info : Advanced Video Codec\nFormat profile : Main@L4\nFormat settings, CABAC : Yes\nFormat settings, ReFrames : 4 frames\nCodec ID : avc1\nCodec ID/Info : Advanced Video Coding\nDuration : 1h 57mn\nBit rate : 610 Kbps\nWidth : 700 pixels\nHeight : 292 pixels\nDisplay aspect ratio : 2.40:1\nOriginal display aspect ratio : 2.40:1\nFrame rate mode : Constant\nFrame rate : 25.000 fps\nColor space : YUV\nChroma subsampling : 4:2:0\nBit depth : 8 bits\nScan type : Progressive\nBits/(Pixel*Frame) : 0.119\nStream size : 514 MiB (79%)\nWriting library : x264 core \n\nColor range : Limited\nColor primaries : BT.601 PAL\nTransfer characteristics : BT.709\nMatrix coefficients : BT.601\n\nAudio\nID : 2\nFormat : AAC\nFormat/Info : Advanced Audio Codec\nFormat profile : LC\nCodec ID : 40\nDuration : 1h 57mn\nBit rate mode : Variable\nBit rate : 160 Kbps\nChannel(s) : 2 channels\nChannel positions : Front: L R\nSampling rate : 48.0 KHz\nCompression mode : Lossy\nStream size : 135 MiB (21%)\nTitle : Stereo / Stereo","torrent":{"xt":"urn:btih:890c87bb9cbb413282f078a4ec4b2c6f308ee9fe","amp;dn":"PIKU+%5B2015%5D+DVDScr+x264+%28Exclusive%29+-+Makintos13","amp;tr":["udp%3A%2F%2Ftracker.openbittorrent.com%3A80","udp%3A%2F%2Fopen.demonii.com%3A1337","udp%3A%2F%2Ftracker.coppersurfer.tk%3A6969","udp%3A%2F%2Fexodus.desync.com%3A6969"],"infoHash":"890c87bb9cbb413282f078a4ec4b2c6f308ee9fe","infoHashBuffer":{"type":"Buffer","data":[137,12,135,187,156,187,65,50,130,240,120,164,236,75,44,111,48,142,233,254]},"announce":[],"urlList":[]}}